<?xml version="1.0" standalone="no"?>
<!DOCTYPE svg PUBLIC "-//W3C//DTD SVG 20010904//EN"
 "http://www.w3.org/TR/2001/REC-SVG-20010904/DTD/svg10.dtd">
<svg version="1.0" xmlns="http://www.w3.org/2000/svg"
 width="1024.000000pt" height="1024.000000pt" viewBox="0 0 1024.000000 1024.000000"
 preserveAspectRatio="xMidYMid meet">
<metadata>
Created by potrace 1.16, written by Peter Selinger 2001-2019
</metadata>
<g transform="translate(0.000000,1024.000000) scale(0.100000,-0.100000)"
fill="#000000" stroke="none">
<path d="M0 5120 l0 -5120 5120 0 5120 0 0 5120 0 5120 -5120 0 -5120 0 0
-5120z m7658 3707 c175 -43 344 -118 482 -215 79 -55 215 -185 279 -267 62
-78 123 -184 115 -197 -4 -6 -2 -8 3 -5 19 12 124 -252 122 -307 0 -21 0 -21
-9 1 -6 15 -16 21 -34 19 -20 -3 -27 3 -35 27 -6 16 -8 33 -5 38 3 5 0 9 -5 9
-6 0 -11 5 -11 11 0 5 3 8 8 5 4 -2 8 9 9 26 0 21 -2 26 -8 17 -6 -10 -9 -6
-9 14 0 16 4 26 10 22 15 -10 -57 136 -86 172 -14 18 -30 31 -35 28 -4 -3 -15
7 -23 22 -20 37 -20 21 -1 -20 15 -32 15 -32 -2 -7 -10 13 -40 52 -67 85 -43
52 -44 56 -12 25 36 -34 37 -34 25 -7 -7 15 -16 27 -21 27 -4 0 -8 10 -8 23 0
18 -2 19 -10 7 -6 -10 -10 -11 -10 -2 0 6 -5 12 -11 12 -5 0 -7 -6 -3 -12 4
-7 -15 8 -42 33 -138 128 -288 230 -421 284 -100 40 -242 73 -323 74 -41 1
-79 6 -84 11 -6 6 -48 10 -96 10 -92 0 -133 7 -124 21 3 5 -1 9 -8 9 -9 0 -9
3 2 10 10 7 -15 9 -80 8 -52 0 -82 -3 -67 -5 l28 -4 -37 -20 c-31 -16 -61 -19
-178 -19 -78 -1 -179 -3 -226 -6 -201 -11 -1494 -14 -1500 -4 -5 8 -113 11
-339 11 -238 -1 -337 2 -350 11 -15 9 -31 9 -73 0 -39 -9 -235 -12 -708 -13
-658 0 -742 -1 -945 -18 -156 -14 -300 -49 -400 -99 -145 -73 -346 -220 -396
-290 -14 -20 -30 -36 -35 -35 -9 1 -17 -9 -79 -106 -25 -40 -29 -43 -40 -28
-13 18 -31 24 -20 8 3 -5 0 -13 -6 -17 -8 -4 -9 -3 -5 4 13 22 -11 12 -28 -10
-24 -32 22 48 58 102 50 74 161 194 228 247 101 80 170 124 185 119 8 -3 11
-1 8 4 -9 14 8 12 25 -2 12 -11 12 -10 1 5 -12 15 -6 21 71 56 108 50 233 89
339 106 68 10 546 13 2514 11 2291 -2 2434 -3 2503 -19z m-1530 -186 c297 -56
625 -211 826 -393 l60 -53 90 0 c78 0 99 -4 144 -26 28 -14 52 -21 52 -16 0
20 44 57 67 57 27 0 63 -51 63 -89 0 -22 -3 -23 -45 -18 -25 4 -45 4 -45 1 0
-2 11 -26 24 -52 64 -127 116 -382 116 -573 0 -108 2 -117 26 -150 153 -207
263 -596 221 -785 -9 -38 -16 -116 -16 -174 -2 -206 -46 -418 -120 -584 -113
-251 -314 -485 -543 -633 -38 -24 -68 -48 -68 -52 0 -5 30 -31 68 -59 62 -46
204 -185 279 -274 31 -36 31 -36 70 -23 22 8 77 17 124 20 247 19 480 -139
605 -411 65 -140 92 -335 74 -539 -6 -69 -13 -132 -16 -140 -3 -8 32 23 78 69
101 101 171 138 271 144 l67 4 0 -45 0 -45 -53 -4 c-128 -11 -264 -127 -372
-319 -66 -116 -133 -301 -159 -439 l-13 -65 -53 2 c-29 2 -55 4 -57 6 -2 2 8
24 22 49 128 229 229 816 186 1084 -42 257 -181 446 -387 526 -49 19 -79 23
-169 23 -98 0 -116 -3 -167 -27 l-57 -26 -66 87 c-82 111 -199 224 -292 282
-54 33 -76 53 -89 82 -9 20 -23 42 -31 48 -24 21 -13 34 64 74 277 144 526
434 636 742 42 116 58 223 56 364 -3 111 -1 130 16 155 17 24 20 51 23 160 5
181 -23 313 -106 496 -32 71 -98 174 -126 197 -13 11 -16 36 -16 138 0 280
-75 572 -163 635 -29 21 -43 23 -143 23 l-111 0 -69 65 c-203 191 -507 336
-819 391 -349 61 -729 -3 -1055 -179 -198 -106 -391 -266 -500 -412 l-50 -68
-73 28 c-153 60 -245 60 -299 2 -48 -52 -134 -211 -189 -349 -65 -163 -107
-476 -81 -612 9 -52 9 -55 -35 -136 -95 -179 -141 -349 -150 -548 l-6 -137
-138 6 c-147 7 -169 2 -169 -37 0 -27 29 -35 145 -43 172 -12 161 -6 180 -94
10 -42 19 -82 22 -88 3 -7 -27 -20 -79 -34 -123 -33 -177 -58 -184 -86 -7 -29
11 -54 38 -54 11 0 54 12 96 26 42 15 96 32 119 40 l42 13 32 -57 c89 -158
239 -321 397 -432 54 -37 87 -66 78 -68 -13 -3 -324 23 -751 63 -219 20 -215
21 -262 -20 -39 -34 -41 -34 -110 -28 -86 7 -128 -6 -174 -53 -30 -31 -34 -42
-36 -89 -1 -43 -7 -62 -27 -86 -24 -28 -26 -38 -26 -126 l0 -95 -59 -64 c-79
-84 -103 -146 -109 -281 -5 -116 15 -201 70 -306 38 -71 136 -179 192 -212
123 -72 311 -94 426 -51 10 4 23 -9 42 -44 l26 -51 -31 6 c-185 31 -363 48
-497 49 l-155 1 -175 -59 c-328 -110 -607 -228 -665 -282 -29 -27 -31 -27
-145 -25 -63 1 -116 4 -117 5 -1 1 4 20 11 41 l14 40 88 3 c74 2 91 6 115 26
36 31 196 108 338 163 183 71 516 183 545 183 25 0 24 2 -29 71 -103 134 -148
261 -148 419 1 155 32 245 126 362 49 61 50 63 48 125 -1 45 6 89 25 151 35
115 64 171 113 215 48 43 101 59 186 56 56 -2 67 1 96 25 58 49 49 49 324 25
207 -17 338 -29 389 -35 l49 -5 -81 88 c-45 48 -100 118 -124 155 -28 43 -50
67 -62 67 -11 1 -49 -11 -85 -25 -104 -42 -174 -24 -229 56 -15 23 -22 48 -22
83 0 72 40 107 154 137 78 21 84 24 77 44 -7 19 -18 22 -113 26 -121 7 -163
24 -192 83 l-18 38 28 56 c41 80 67 93 185 93 l96 0 7 68 c16 160 70 347 143
502 l46 94 1 181 c2 158 5 194 30 300 43 182 100 325 203 504 69 119 131 161
237 161 53 0 167 -24 217 -44 11 -5 29 9 61 46 270 314 653 521 1093 593 127
20 394 13 543 -14z m-223 -201 c-22 -4 -32 -8 -22 -9 9 0 17 -5 17 -10 0 -5 7
-17 16 -25 18 -19 23 -18 -96 -16 -111 1 -314 -43 -511 -110 -144 -49 -237
-94 -341 -163 -40 -27 -54 -33 -56 -22 -4 17 40 61 69 70 11 4 17 11 14 16 -4
5 -1 9 6 9 22 0 239 133 233 142 -4 6 2 7 16 3 14 -4 20 -3 16 3 -3 5 4 10 17
10 12 0 60 10 105 21 46 12 145 31 220 41 76 11 148 23 162 27 22 7 19 9 -20
14 -27 4 4 6 75 6 79 0 106 -2 80 -7z m78 -7 c-7 -2 -19 -2 -25 0 -7 3 -2 5
12 5 14 0 19 -2 13 -5z m74 -9 c-3 -3 -12 -4 -19 -1 -8 3 -5 6 6 6 11 1 17 -2
13 -5z m-1097 -249 c0 -2 -10 -9 -22 -15 -22 -11 -22 -10 -4 4 21 17 26 19 26
11z m-3270 -159 c0 -13 -13 -64 -29 -113 -16 -48 -36 -131 -46 -183 -9 -52
-21 -105 -26 -117 -4 -13 -6 -31 -3 -40 5 -15 4 -16 -5 -3 -9 13 -11 13 -11 0
0 -13 -1 -13 -10 0 -6 10 -10 -8 -13 -60 -2 -41 -3 -25 -2 35 4 153 12 235 31
313 27 108 52 166 76 178 34 17 38 16 38 -10z m5485 -71 c28 -60 64 -219 76
-338 23 -227 -7 -452 -90 -670 -23 -59 -41 -115 -41 -125 0 -40 48 -55 85 -28
18 13 24 9 72 -57 29 -40 81 -128 116 -196 l62 -125 0 -155 c0 -133 -3 -168
-23 -236 -52 -181 -170 -374 -314 -510 -255 -243 -608 -392 -1103 -466 -141
-22 -607 -19 -765 4 -431 63 -766 180 -1029 360 -103 70 -257 225 -320 321
-28 43 -51 82 -51 86 0 3 35 13 77 21 62 11 79 18 81 33 6 30 -17 37 -108 34
l-85 -3 -16 65 c-19 77 -19 77 75 55 115 -26 168 -16 132 24 -15 16 -43 26
-183 61 l-43 11 0 117 c0 196 53 385 162 577 109 192 251 356 346 398 69 31
260 71 437 92 184 22 584 30 790 16 177 -12 496 -54 552 -72 43 -14 70 2 82
49 36 132 252 384 438 510 159 107 362 179 514 181 55 1 57 0 74 -34z m687
-90 c22 -41 64 -79 117 -106 l45 -23 -29 -7 c-15 -5 -46 -23 -69 -41 -23 -18
-35 -25 -28 -16 10 13 9 16 -10 22 -31 8 -99 6 -123 -3 -13 -6 -28 -3 -45 9
-14 9 -38 22 -55 27 l-30 11 27 11 c63 25 122 96 153 186 7 18 8 17 19 -10 6
-16 19 -43 28 -60z m-3521 -38 c48 -21 88 -52 78 -61 -2 -1 -25 -18 -52 -36
-26 -19 -65 -56 -86 -84 -83 -107 -161 -285 -161 -363 0 -34 -10 -50 -82 -132
l-83 -93 -3 74 c-4 87 21 244 55 348 29 88 97 237 149 322 l37 60 47 -5 c25
-3 71 -16 101 -30z m1204 18 c-5 -2 -113 -5 -240 -7 -126 -2 -205 -1 -175 2
57 7 433 11 415 5z m-2511 -188 c46 -69 127 -142 198 -178 l51 -26 -59 -14
c-42 -10 -123 -14 -285 -14 -192 0 -228 2 -241 16 -15 14 -13 17 19 34 87 47
193 198 224 318 l12 48 21 -63 c12 -35 39 -89 60 -121z m2629 176 c-7 -2 -21
-2 -30 0 -10 3 -4 5 12 5 17 0 24 -2 18 -5z m-636 -9 c-3 -3 -12 -4 -19 -1 -8
3 -5 6 6 6 11 1 17 -2 13 -5z m-80 -10 c-3 -3 -12 -4 -19 -1 -8 3 -5 6 6 6 11
1 17 -2 13 -5z m3720 -16 c-3 -8 -6 -5 -6 6 -1 11 2 17 5 13 3 -3 4 -12 1 -19z
m-6180 -847 c45 -65 128 -133 200 -163 l51 -21 -66 -32 c-37 -18 -82 -44 -100
-59 -18 -16 -30 -21 -26 -13 6 17 -5 20 -141 37 -157 19 -180 23 -218 42 -21
11 -47 16 -58 13 -37 -12 -19 4 42 36 101 54 204 190 225 299 7 31 7 31 30
-26 13 -32 40 -83 61 -113z m500 77 c-3 -8 -6 -5 -6 6 -1 11 2 17 5 13 3 -3 4
-12 1 -19z m381 -673 c14 -31 15 -35 3 -35 -5 0 -13 10 -16 21 -5 15 -9 18
-15 9 -6 -9 -9 -9 -15 0 -4 7 -1 16 6 21 21 13 25 11 37 -16z m4779 -663 c16
-13 46 -32 67 -44 l40 -20 -37 -13 c-21 -7 -44 -18 -53 -26 -10 -8 -43 -12
-95 -11 -46 0 -79 -3 -79 -9 0 -6 -15 1 -32 14 -18 14 -46 29 -63 34 l-30 10
40 18 c55 27 112 89 132 146 l17 48 33 -62 c18 -34 45 -72 60 -85z m-5770
-252 c19 -17 54 -41 78 -52 l43 -21 -59 -29 c-32 -16 -69 -42 -82 -58 -21 -24
-27 -26 -38 -15 -8 7 -32 15 -54 16 -24 2 -57 15 -83 32 -23 15 -56 33 -73 39
l-31 11 41 21 c60 30 102 76 135 144 l29 60 29 -58 c16 -33 45 -73 65 -90z
m-830 3 c-3 -10 -5 -2 -5 17 0 19 2 27 5 18 2 -10 2 -26 0 -35z m6520 -5 c-3
-8 -6 -5 -6 6 -1 11 2 17 5 13 3 -3 4 -12 1 -19z m-4440 -243 c103 -8 202 -17
218 -20 17 -3 124 -12 239 -20 114 -8 219 -18 231 -21 14 -3 29 -21 40 -44 16
-35 16 -57 6 -256 -10 -216 -42 -509 -62 -570 -12 -39 -41 -52 -99 -43 -196
28 -291 39 -395 45 -115 6 -121 8 -147 35 -15 16 -34 29 -42 29 -9 0 -16 5
-16 11 0 8 13 9 40 5 23 -3 111 -11 198 -17 86 -5 184 -14 217 -19 90 -15 160
-13 175 5 16 20 36 177 57 457 19 260 18 261 -40 272 -116 20 -660 76 -792 81
-88 3 -179 8 -202 11 -39 5 -43 8 -43 33 0 15 3 31 7 34 11 12 214 8 410 -8z
m-479 -171 l3 -142 -40 -4 c-44 -4 -51 5 -51 73 0 25 5 39 17 43 12 5 14 9 5
18 -7 7 -12 26 -12 43 0 39 -14 60 -34 52 -21 -8 -21 -65 0 -96 12 -17 13 -26
5 -34 -6 -6 -11 -35 -11 -64 0 -54 -13 -70 -24 -30 -4 12 -9 72 -13 132 -5 99
-4 112 13 126 24 21 49 28 99 26 l40 -2 3 -141z m1356 92 c111 -42 108 -38 80
-93 -14 -26 -27 -63 -30 -83 -5 -26 -17 -43 -50 -68 -75 -56 -76 -55 -69 29 4
41 14 89 22 108 9 21 11 36 5 40 -8 5 -12 15 -28 74 -7 22 -7 22 70 -7z m2233
-74 c18 -24 33 -48 33 -54 0 -33 -133 -126 -298 -208 -194 -96 -499 -190 -619
-190 -72 0 -90 19 -171 176 l-68 131 155 7 c323 14 601 66 832 156 41 15 81
27 89 27 8 -1 29 -22 47 -45z m-3152 7 c159 -12 560 -56 612 -67 l38 -8 -3
-70 c-3 -103 -45 -532 -52 -544 -5 -8 -27 -8 -72 0 -100 16 -344 40 -403 40
-76 0 -85 5 -75 41 6 19 4 48 -5 82 -16 61 -74 121 -135 137 -35 9 -38 13 -38
45 0 73 -72 144 -170 167 -58 14 -58 13 -65 136 l-3 64 120 -7 c67 -3 180 -10
251 -16z m1267 -49 c44 -12 146 -32 226 -46 80 -13 147 -26 150 -28 2 -3 -8
-12 -23 -22 -15 -10 -63 -67 -108 -127 l-81 -109 -43 5 c-53 6 -126 52 -218
138 -85 80 -90 90 -69 131 30 60 56 89 71 84 8 -3 51 -15 95 -26z m2068 -142
c195 -136 363 -379 493 -708 115 -292 171 -652 136 -870 -26 -162 -111 -255
-279 -306 -121 -36 -367 -42 -586 -14 l-92 12 39 72 c71 132 89 280 49 407
-10 35 -17 65 -15 67 2 2 56 9 120 15 85 8 144 8 217 0 104 -12 128 -10 128
12 0 37 -91 74 -205 84 l-80 6 -32 65 c-40 81 -110 291 -119 359 -8 59 -26 80
-50 60 -36 -30 9 -358 62 -461 17 -32 15 -33 -51 -41 -39 -4 -41 -3 -70 45
-17 28 -58 76 -92 107 -34 32 -67 70 -74 87 -35 79 -102 134 -182 149 -35 7
-37 10 -37 44 0 46 -30 94 -66 109 -16 6 -123 20 -239 32 -115 11 -235 23
-266 27 -31 3 -61 8 -67 12 -6 3 -18 73 -29 156 l-18 149 60 61 60 61 36 -60
c20 -34 48 -69 62 -80 42 -31 119 -32 260 -2 298 62 590 193 792 355 28 22 53
40 56 40 3 1 39 -22 79 -51z m-3977 -20 c-2 -5 -8 -8 -14 -8 -11 0 -12 43 -2
54 9 8 22 -34 16 -46z m-1396 -255 c-1 -54 -3 -12 -3 92 0 105 2 149 3 98 2
-51 2 -136 0 -190z m3276 52 c30 -20 76 -43 103 -51 73 -22 109 -10 174 55
l55 56 32 -65 33 -65 -61 -150 -61 -150 -97 3 c-88 3 -99 2 -131 -20 -20 -14
-58 -30 -85 -37 -28 -7 -69 -23 -92 -37 -23 -13 -43 -24 -45 -24 -2 0 -2 48 0
106 3 99 -5 140 -24 121 -4 -3 -20 -64 -36 -134 -15 -70 -48 -198 -72 -283
-24 -85 -47 -168 -50 -183 -8 -36 -150 -143 -266 -199 -75 -37 -95 -43 -171
-46 -71 -4 -97 0 -145 18 -71 26 -182 103 -194 135 -5 12 -22 33 -39 46 -34
27 -161 194 -161 213 0 6 16 20 36 31 51 27 141 129 155 173 l11 37 116 -7
c192 -12 199 -14 247 -63 24 -24 57 -69 73 -101 28 -55 30 -57 41 -36 15 27 6
85 -20 130 l-18 32 65 0 c153 0 177 39 205 335 6 66 17 131 24 145 7 14 54 64
103 112 l90 87 75 -74 c41 -40 100 -90 130 -110z m-1526 135 c52 -23 79 -60
63 -89 -14 -27 -33 -36 -105 -51 -99 -20 -162 -60 -149 -94 8 -21 5 -21 179
15 169 35 191 33 225 -23 25 -41 26 -105 2 -134 -32 -39 -90 -75 -168 -103
-86 -32 -106 -49 -84 -76 20 -24 87 -15 185 24 82 33 114 38 133 19 33 -33
-20 -130 -105 -189 -83 -58 -174 -82 -285 -77 -80 4 -102 9 -156 36 -105 54
-170 134 -219 269 -42 115 -29 260 30 351 12 18 47 48 77 66 140 83 271 102
377 56z m-1732 -847 c11 -10 15 -11 15 -2 0 7 2 10 5 7 3 -2 12 -242 20 -533
8 -291 17 -531 20 -533 3 -3 5 82 5 189 0 107 3 224 7 262 l6 67 108 0 107 0
4 -77 c3 -75 2 -79 -28 -114 -27 -32 -32 -44 -36 -115 -3 -43 -5 -134 -4 -201
1 -109 3 -125 22 -143 22 -22 231 -63 694 -136 124 -19 235 -37 246 -40 25 -6
83 18 379 159 413 196 561 269 583 290 19 18 22 31 22 94 0 65 -3 77 -24 98
-16 15 -22 31 -19 44 4 17 11 19 52 15 360 -37 984 -121 1026 -139 17 -8 116
-23 220 -35 105 -11 262 -30 349 -40 88 -11 186 -20 217 -20 55 0 59 -2 112
-52 120 -116 271 -178 452 -185 131 -6 227 12 317 56 53 27 65 29 106 21 244
-45 512 -56 667 -26 50 9 127 33 171 52 l82 35 108 -11 c60 -6 163 -17 229
-25 115 -14 204 -24 540 -61 l149 -16 21 24 c11 14 26 34 33 44 11 17 11 17 2
-3 -8 -17 -8 -23 1 -23 21 0 4 -156 -24 -230 -100 -264 -273 -496 -462 -619
-191 -125 -243 -151 -353 -176 -37 -9 -82 -21 -101 -27 -30 -9 -176 -28 -208
-27 -7 0 -25 -1 -40 -1 -16 -1 -370 -4 -788 -6 -673 -4 -757 -3 -740 10 19 14
18 15 -14 11 -19 -2 -39 -9 -44 -14 -6 -6 -40 -11 -76 -11 l-65 0 30 31 c16
17 77 72 136 121 59 50 109 97 113 106 10 27 -27 49 -115 69 -65 15 -78 21
-57 25 15 3 27 1 27 -3 0 -5 8 -9 17 -9 14 0 13 3 -6 16 -18 13 -20 18 -10 25
10 6 7 9 -10 9 -13 0 -50 7 -82 15 -78 20 -141 27 -133 14 3 -6 12 -8 20 -5 7
3 16 0 20 -6 5 -7 -4 -9 -25 -6 -17 2 -31 1 -31 -4 0 -4 10 -8 23 -9 12 0 17
-3 10 -5 -6 -3 -166 29 -355 71 -188 42 -364 79 -389 82 l-47 6 -290 -207
c-160 -114 -293 -214 -296 -223 -4 -9 1 -25 11 -37 16 -19 15 -19 -8 2 -14 12
-29 22 -35 22 -5 0 -2 -5 6 -10 12 -8 11 -13 -9 -34 -14 -15 -30 -22 -40 -19
-12 4 -11 1 4 -11 19 -16 18 -16 -30 -10 -65 9 -149 36 -213 68 -51 26 -90 31
-126 17 -17 -6 -11 -12 35 -33 29 -14 71 -31 91 -39 25 -8 34 -16 25 -21 -6
-4 -162 -8 -344 -8 l-333 0 0 24 c0 14 -4 28 -10 31 -5 3 -10 2 -10 -4 0 -6
-11 -13 -25 -17 -24 -6 -24 -7 -8 -20 16 -12 -5 -14 -145 -13 -130 1 -165 4
-177 16 -8 8 -13 19 -10 24 4 5 -1 6 -9 3 -19 -7 -21 -20 -3 -27 6 -3 -8 -6
-34 -6 -25 -1 -83 11 -130 25 -46 14 -111 32 -144 39 -81 19 -201 69 -198 83
2 6 -4 9 -12 6 -8 -3 -19 3 -27 15 -7 12 -19 21 -26 21 -17 0 -93 52 -113 76
-11 14 -7 14 17 -3 17 -12 53 -27 80 -34 27 -7 69 -22 94 -35 65 -32 125 -40
155 -20 28 18 30 33 14 70 -10 21 -20 25 -81 31 -45 5 -71 12 -75 21 -3 8 -12
14 -20 14 -8 0 -11 -5 -8 -11 4 -6 -2 -5 -13 2 -11 7 -18 19 -15 26 4 10 -10
13 -57 13 -33 0 -59 -4 -56 -9 3 -5 -5 -12 -19 -15 -14 -4 -25 -11 -25 -16 0
-45 -158 98 -255 231 -94 127 -144 231 -185 382 -10 37 -23 74 -30 82 -6 7
-15 26 -20 42 -20 66 4 -98 26 -175 28 -98 117 -279 186 -379 57 -83 204 -228
298 -295 78 -55 259 -147 350 -176 179 -59 -6 -55 2605 -54 2384 1 2390 1
2495 22 177 35 378 124 518 230 212 160 376 402 457 677 22 73 27 118 34 268
4 99 5 220 2 270 l-6 89 -18 -68 c-23 -87 -63 -165 -122 -239 -32 -41 -51 -57
-62 -53 -9 4 -61 11 -117 16 -176 17 -167 13 -159 68 15 114 88 312 161 436
91 155 222 266 297 252 33 -7 34 -6 45 36 13 45 36 84 48 81 17 -4 20 -69 21
-433 1 -537 -10 -661 -75 -843 -156 -432 -521 -761 -957 -861 -160 -37 -201
-37 -2617 -34 -2628 4 -2390 -2 -2605 69 -431 144 -781 538 -879 989 -28 131
-33 327 -27 1015 3 369 7 569 9 447 2 -182 5 -227 17 -239z m3727 257 c154
-11 492 -46 537 -56 l24 -5 -24 -23 -24 -24 -135 19 c-222 29 -415 48 -588 55
-156 7 -162 8 -145 25 22 22 123 24 355 9z m-519 -81 c41 -11 46 -27 23 -71
-11 -21 -12 -48 -5 -135 22 -268 59 -617 67 -625 12 -12 88 -24 257 -43 168
-18 473 -62 486 -71 5 -3 9 -16 9 -30 0 -30 -12 -30 -166 -9 -60 9 -223 29
-362 45 -271 30 -285 35 -296 89 -4 14 -13 100 -21 191 -8 91 -22 227 -30 303
-20 194 -29 333 -22 351 7 19 10 19 60 5z m1245 4 l54 -6 -46 -28 c-42 -27
-49 -28 -96 -19 -68 13 -75 18 -54 41 18 20 52 23 142 12z m-858 -24 c253 -19
717 -76 783 -95 13 -4 17 -17 17 -60 0 -57 -3 -60 -46 -44 -71 27 -639 103
-859 115 -60 3 -133 8 -161 11 -51 5 -52 6 -56 42 -3 21 0 40 6 44 11 8 81 5
316 -13z m960 -134 l0 -105 -40 0 c-37 0 -40 2 -40 28 0 15 9 42 20 60 25 41
25 42 -5 42 -14 0 -25 6 -25 13 1 11 66 65 83 66 4 1 7 -46 7 -104z m-1480
-40 c1 -27 16 -187 34 -355 18 -168 32 -307 30 -309 -4 -4 -233 16 -290 25
l-31 6 64 150 c64 151 111 295 153 466 24 100 39 107 40 17z m600 9 c271 -27
630 -80 630 -94 0 -4 -14 -13 -30 -20 -43 -18 -107 -85 -121 -127 -6 -19 -9
-50 -6 -68 5 -28 2 -34 -16 -39 -37 -9 -98 -67 -118 -110 -35 -77 -17 -147 50
-197 26 -19 28 -24 15 -36 -12 -12 -24 -12 -91 1 -114 23 -265 44 -461 65 -95
10 -176 21 -179 25 -6 6 -62 537 -63 595 l0 34 118 -7 c64 -3 187 -13 272 -22z
m1001 6 c19 -10 119 -136 119 -150 0 -4 -35 5 -77 20 l-78 26 -3 57 c-3 59 2
66 39 47z m-3246 -180 c178 -16 469 -52 483 -59 7 -4 -87 -47 -220 -101 -128
-51 -285 -118 -348 -149 -63 -30 -117 -55 -120 -54 -57 15 -496 82 -644 98
-32 4 -54 10 -50 14 16 14 133 59 414 160 301 109 296 108 485 91z m3287 -30
c51 -12 103 -23 115 -26 61 -12 159 -142 188 -247 26 -99 18 -225 -19 -302
-42 -86 -135 -176 -211 -204 -158 -60 -320 -46 -487 41 -78 40 -158 113 -158
143 0 27 20 55 38 55 9 0 36 -7 59 -15 60 -21 177 -39 206 -31 56 14 36 58
-36 76 -169 43 -234 75 -282 140 -34 46 -32 72 10 109 41 36 52 37 230 16 104
-11 123 -11 143 1 26 17 28 36 7 54 -8 7 -68 21 -132 32 -91 15 -122 24 -135
40 -10 11 -18 26 -18 32 0 15 56 69 88 85 69 36 238 36 394 1z m-2682 -272 l0
-31 -22 19 c-12 10 -19 15 -16 9 4 -6 -7 -11 -25 -11 -30 -1 -30 -1 14 22 24
13 45 23 47 24 1 0 2 -14 2 -32z m-370 -148 c-8 -5 -19 -10 -25 -10 -5 0 -3 5
5 10 8 5 20 10 25 10 6 0 3 -5 -5 -10z m361 -83 c-6 -15 -15 -27 -21 -27 -6 0
-57 -20 -113 -44 -56 -24 -127 -52 -157 -61 -68 -22 -186 -70 -304 -124 -49
-23 -91 -40 -93 -38 -2 3 10 10 27 17 16 7 27 17 23 23 -4 6 -1 7 8 3 8 -4 6
-1 -5 8 -17 14 -15 15 25 26 24 6 100 37 169 69 69 32 190 87 269 121 78 35
148 69 155 76 17 19 29 -16 17 -49z m-1144 47 c-3 -3 -12 -4 -19 -1 -8 3 -5 6
6 6 11 1 17 -2 13 -5z m623 -34 c-8 -5 -19 -10 -25 -10 -5 0 -3 5 5 10 8 5 20
10 25 10 6 0 3 -5 -5 -10z m-115 -51 c-63 -33 -105 -63 -105 -76 0 -7 8 -10
18 -7 9 3 -5 -7 -33 -21 -41 -21 -54 -24 -71 -14 -12 6 -21 18 -20 27 1 10
-10 19 -29 24 -20 5 -10 6 32 4 35 -1 64 2 66 7 3 9 152 75 172 76 6 0 -8 -9
-30 -20z m-282 -56 c-7 -2 -19 -2 -25 0 -7 3 -2 5 12 5 14 0 19 -2 13 -5z m50
-50 c-7 -2 -19 -2 -25 0 -7 3 -2 5 12 5 14 0 19 -2 13 -5z m-596 -279 c-3 -3
-12 -4 -19 -1 -8 3 -5 6 6 6 11 1 17 -2 13 -5z m56 -11 c-7 -2 -21 -2 -30 0
-10 3 -4 5 12 5 17 0 24 -2 18 -5z m2921 -607 c297 -65 535 -116 639 -136 31
-6 57 -16 57 -21 0 -5 -4 -9 -10 -9 -5 0 -76 -57 -157 -127 l-147 -127 -231 1
c-371 3 -476 14 -722 76 -117 29 -215 56 -218 59 -3 2 59 49 136 104 78 54
187 131 243 171 56 39 105 72 110 72 5 1 140 -28 300 -63z m503 -32 c-3 -3
-12 -4 -19 -1 -8 3 -5 6 6 6 11 1 17 -2 13 -5z m46 -11 c-7 -2 -19 -2 -25 0
-7 3 -2 5 12 5 14 0 19 -2 13 -5z m50 -10 c-7 -2 -19 -2 -25 0 -7 3 -2 5 12 5
14 0 19 -2 13 -5z m-1330 -327 c38 -8 71 -17 74 -19 9 -10 -83 6 -142 25 -64
20 -42 18 68 -6z"/>
<path d="M4398 8833 c18 -2 45 -2 60 0 15 2 0 4 -33 4 -33 0 -45 -2 -27 -4z"/>
<path d="M8251 8434 c33 -34 45 -41 47 -29 2 9 -6 24 -18 32 -17 12 -19 17 -9
24 11 7 9 9 -6 10 -11 0 -29 2 -39 4 -13 3 -5 -10 25 -41z"/>
<path d="M1565 7657 c0 -14 3 -28 7 -32 4 -4 4 -14 1 -23 -4 -15 -3 -15 6 -2
14 20 14 42 -2 64 -12 16 -13 16 -12 -7z"/>
<path d="M6499 7563 c-13 -15 -12 -15 9 -4 23 12 28 21 13 21 -5 0 -15 -7 -22
-17z"/>
<path d="M6440 7500 c-24 -24 -26 -50 -4 -50 11 0 14 5 10 16 -4 10 1 25 10
35 23 25 9 24 -16 -1z"/>
<path d="M6990 7023 c0 -17 5 -35 10 -38 13 -8 13 35 0 55 -7 11 -10 7 -10
-17z"/>
<path d="M4037 6512 c-39 -43 -1 -159 75 -228 69 -62 138 -88 249 -92 71 -3
112 0 155 13 130 37 238 134 266 238 11 44 11 49 -9 68 -31 32 -60 17 -87 -44
-27 -62 -79 -110 -156 -146 -46 -21 -70 -25 -145 -25 -79 -1 -98 3 -149 28
-64 31 -116 97 -116 147 0 52 -51 77 -83 41z"/>
<path d="M5332 6508 c-21 -21 -14 -100 14 -156 104 -209 442 -284 699 -155
103 52 195 152 195 213 0 54 -70 80 -94 35 -53 -100 -116 -149 -235 -185 -93
-29 -224 -24 -315 10 -79 30 -160 108 -176 170 -7 25 -15 52 -19 60 -10 19
-52 25 -69 8z"/>
<path d="M4845 6241 c-64 -16 -115 -63 -115 -106 0 -21 62 -88 132 -141 21
-16 29 -33 34 -72 9 -73 -2 -118 -42 -162 -63 -69 -143 -76 -209 -19 -37 33
-71 36 -89 6 -16 -26 10 -66 67 -101 92 -57 205 -44 289 32 l39 35 37 -36
c110 -107 318 -112 425 -10 29 29 34 52 15 71 -18 18 -41 15 -91 -13 -50 -28
-126 -41 -180 -31 -50 9 -120 59 -145 105 -18 32 -22 53 -20 103 l3 63 85 58
c47 31 91 65 98 74 34 46 -10 114 -91 138 -52 15 -188 19 -242 6z"/>
<path d="M6973 6059 c-103 -8 -309 -40 -375 -59 -41 -12 -52 -30 -34 -56 12
-16 22 -16 184 5 94 11 232 24 307 28 112 5 141 10 158 25 l22 18 -28 25 c-31
28 -47 29 -234 14z"/>
<path d="M6580 5815 c-29 -35 -1 -48 186 -86 98 -20 216 -46 261 -58 123 -32
153 -27 153 23 0 27 -144 72 -340 105 -185 32 -244 35 -260 16z"/>
<path d="M6901 5533 c-27 -40 -42 -103 -26 -103 14 0 125 85 125 95 0 14 -42
55 -57 55 -6 0 -25 -21 -42 -47z"/>
<path d="M6863 5553 c-7 -2 -13 -12 -13 -20 0 -10 6 -13 16 -9 9 3 18 6 20 6
2 0 4 7 4 15 0 15 -6 17 -27 8z"/>
<path d="M7037 5542 c-19 -20 -22 -32 -9 -32 5 0 14 11 20 25 14 30 11 31 -11
7z"/>
<path d="M3610 4692 c0 -19 52 -36 126 -40 85 -5 108 5 84 33 -9 11 -37 15
-111 15 -55 0 -99 -3 -99 -8z"/>
<path d="M6896 4724 c-9 -23 -10 -22 41 -54 48 -30 77 -37 87 -21 11 17 -4 37
-46 64 -48 31 -73 34 -82 11z"/>
<path d="M7446 3266 c-3 -14 -28 -53 -54 -88 -55 -71 -58 -97 -11 -73 49 26
107 132 92 171 -8 21 -20 17 -27 -10z"/>
<path d="M3950 3631 c15 -11 10 -14 -25 -12 -15 0 -12 -3 10 -14 46 -21 145
-18 145 5 0 4 -24 10 -54 14 -30 3 -63 9 -73 12 -15 5 -15 4 -3 -5z"/>
<path d="M3395 4473 c-88 -27 -97 -53 -19 -53 63 0 114 30 114 66 0 8 -46 2
-95 -13z"/>
<path d="M8531 3579 c-30 -12 -111 -83 -133 -117 -21 -32 -23 -62 -5 -62 14 0
167 165 167 180 0 6 -1 10 -2 9 -2 0 -14 -5 -27 -10z"/>
<path d="M4184 2956 c-60 -30 -197 -104 -304 -164 -167 -94 -195 -113 -198
-135 -2 -17 3 -29 15 -35 10 -5 92 -27 183 -48 90 -22 155 -41 145 -43 -11 -2
-26 -8 -33 -14 -11 -9 -11 -13 5 -19 35 -15 -51 3 -239 50 l-188 46 -62 -31
c-35 -18 -128 -66 -208 -108 -80 -42 -202 -106 -273 -141 -158 -81 -171 -92
-144 -126 12 -17 70 -34 532 -158 430 -116 485 -132 480 -140 -2 -4 8 -7 23
-7 15 0 48 -4 74 -8 45 -7 50 -6 100 31 29 22 72 53 96 69 68 48 251 175 346
240 47 33 88 67 91 76 8 25 -5 49 -29 54 -11 2 -127 30 -256 61 -164 40 -229
59 -215 65 11 4 14 8 8 8 -7 1 -13 8 -13 16 0 8 -7 15 -17 15 -9 0 -14 3 -11
6 4 3 75 -10 160 -30 84 -19 222 -51 306 -71 84 -19 167 -35 183 -35 22 0 58
20 129 73 54 39 172 127 264 195 115 84 166 128 166 142 0 10 -4 21 -8 24 -10
6 -974 196 -996 196 -2 0 -52 -24 -112 -54z m256 -37 c218 -46 697 -139 722
-139 10 0 18 -4 18 -8 0 -5 -57 -48 -127 -97 -71 -49 -169 -120 -220 -158
l-91 -68 -319 74 c-175 42 -384 90 -465 108 -82 18 -148 36 -148 39 1 3 15 12
33 21 18 8 126 68 241 132 118 66 221 117 235 117 14 0 69 -9 121 -21z m-363
-395 c-3 -3 -12 -4 -19 -1 -8 3 -5 6 6 6 11 1 17 -2 13 -5z m-146 -88 c189
-46 397 -96 462 -111 64 -15 117 -30 117 -34 0 -4 -10 -12 -22 -18 -13 -6 -88
-57 -168 -115 -80 -57 -181 -128 -225 -158 l-80 -54 -100 27 c-55 15 -131 35
-170 46 -300 82 -649 176 -690 186 l-50 11 105 56 c58 30 186 98 285 151 99
53 183 96 186 97 4 0 161 -38 350 -84z m162 37 c-7 -2 -21 -2 -30 0 -10 3 -4
5 12 5 17 0 24 -2 18 -5z"/>
<path d="M5415 2761 c-83 -53 -499 -358 -509 -373 -21 -34 5 -50 125 -80 62
-15 137 -32 164 -37 28 -6 176 -37 330 -71 245 -54 474 -100 495 -100 8 0 100
73 226 181 49 41 134 113 189 159 113 94 120 102 106 128 -7 14 -39 24 -128
40 -65 12 -212 40 -328 62 -220 42 -608 110 -628 110 -7 0 -25 -9 -42 -19z
m160 -65 c122 -27 433 -84 625 -116 102 -17 197 -33 213 -36 l28 -6 -28 -21
c-30 -23 -85 -69 -283 -237 l-124 -104 -145 30 c-599 126 -841 179 -841 184 1
3 33 28 72 55 39 28 141 101 226 163 94 68 161 111 171 108 9 -3 48 -12 86
-20z"/>
<path d="M7860 2719 c-58 -14 -80 -16 -97 -7 -13 6 -46 9 -80 5 -72 -6 -331
-91 -378 -123 -19 -13 -81 -39 -138 -58 -134 -45 -415 -155 -508 -199 -85 -40
-187 -129 -278 -243 -61 -76 -72 -103 -48 -122 19 -16 303 -14 395 2 80 14
363 112 608 210 77 31 150 56 163 56 28 0 196 63 275 102 135 68 272 182 312
261 21 40 14 86 -16 108 -38 26 -123 30 -210 8z m118 -71 c20 -20 14 -26 -43
-39 -38 -8 -55 -17 -55 -28 0 -9 -9 -1 -21 18 -11 18 -19 34 -17 36 27 22 118
31 136 13z m-83 -118 c-3 -5 -11 -10 -16 -10 -6 0 -7 5 -4 10 3 6 11 10 16 10
6 0 7 -4 4 -10z m-562 -88 l26 -28 -42 0 c-43 -1 -187 -52 -332 -119 -111 -51
-128 -57 -119 -44 12 19 -40 -1 -56 -22 -15 -19 -16 -19 -39 5 l-24 25 29 11
c16 6 70 26 119 46 211 81 400 153 406 153 3 1 17 -11 32 -27z m157 -57 c-7
-9 -15 -13 -19 -10 -3 3 1 10 9 15 21 14 24 12 10 -5z m-786 -186 c14 -11 26
-24 26 -27 0 -7 -46 -25 -115 -44 -22 -6 -42 -14 -45 -18 -9 -13 -45 -20 -57
-12 -17 11 114 122 143 122 12 0 33 -9 48 -21z"/>
<path d="M2117 2543 c-48 -13 25 -56 113 -68 53 -6 54 -6 33 10 -13 9 -23 22
-23 29 0 8 -13 16 -29 19 -68 14 -77 15 -94 10z"/>
<path d="M2380 2460 c13 -8 13 -10 1 -10 -9 0 -11 -3 -5 -9 14 -14 104 -30
110 -20 3 5 -6 9 -20 9 -14 0 -26 4 -26 9 0 5 -14 14 -31 20 -39 13 -49 14
-29 1z"/>
<path d="M5454 2170 c-14 -5 -10 -9 20 -14 45 -9 53 -5 22 10 -12 6 -31 7 -42
4z"/>
<path d="M7635 2174 c-87 -18 -145 -38 -145 -50 0 -8 -7 -14 -15 -14 -9 0 -18
-7 -22 -16 -3 -8 -12 -13 -19 -10 -8 3 -11 0 -7 -10 7 -19 69 -19 77 1 4 12
14 14 39 10 38 -7 169 28 187 50 8 10 4 17 -21 29 -32 16 -38 17 -74 10z"/>
<path d="M2569 2146 c12 -14 16 -15 141 -40 109 -22 122 -22 126 -8 1 7 0 8
-3 2 -2 -5 -9 -10 -14 -10 -6 0 -8 4 -5 9 8 13 -21 34 -38 28 -8 -3 -51 3 -96
14 -100 23 -127 25 -111 5z"/>
<path d="M7240 2048 c-47 -17 -145 -53 -218 -79 -72 -27 -140 -49 -150 -49 -9
-1 -34 -9 -55 -19 l-39 -18 56 -11 c50 -10 63 -9 128 14 40 14 116 33 168 44
148 29 244 70 220 94 -5 5 -10 20 -10 33 0 28 3 29 -100 -9z"/>
<path d="M3012 2036 c5 -36 101 -81 235 -111 34 -8 73 -21 87 -30 29 -19 46
-13 46 16 0 11 5 17 10 14 6 -3 10 -3 10 2 0 4 -48 23 -108 41 -59 18 -147 46
-195 61 -87 28 -88 28 -85 7z"/>
<path d="M2530 1974 c0 -8 5 -12 10 -9 6 4 8 11 5 16 -9 14 -15 11 -15 -7z"/>
<path d="M6489 1856 c-2 -3 -39 -6 -82 -8 -42 -1 -77 -6 -77 -9 0 -4 -9 -5
-20 -2 -11 3 -20 1 -20 -5 0 -15 86 -35 117 -27 15 4 73 7 128 7 62 0 90 3 74
8 -14 4 -34 12 -45 17 -24 13 -70 24 -75 19z"/>
<path d="M6640 1826 c0 -9 40 -13 46 -5 3 5 -6 9 -20 9 -14 0 -26 -2 -26 -4z"/>
<path d="M5204 3559 c-15 -24 23 -37 127 -42 108 -6 136 0 126 25 -9 24 -239
39 -253 17z"/>
</g>
</svg>
